<?xml version="1.0" encoding="UTF-8"?>
<!DOCTYPE svg PUBLIC "-//W3C//DTD SVG 1.1//EN" "http://www.w3.org/Graphics/SVG/1.1/DTD/svg11.dtd">
<svg xmlns="http://www.w3.org/2000/svg" version="1.1" width="168px" height="64px" style="shape-rendering:geometricPrecision; text-rendering:geometricPrecision; image-rendering:optimizeQuality; fill-rule:evenodd; clip-rule:evenodd" xmlns:xlink="http://www.w3.org/1999/xlink">
<g><path style="opacity:1" fill="#e36035" d="M 63.5,13.5 C 74.2186,13.1899 84.8853,13.5232 95.5,14.5C 93.9696,21.2407 90.9696,27.574 86.5,33.5C 91.5,38.8333 96.5,44.1667 101.5,49.5C 100.52,50.9814 99.353,52.3147 98,53.5C 93.3665,47.8651 88.3665,42.5318 83,37.5C 77.6494,43.4192 71.4828,48.2526 64.5,52C 62.0937,52.7789 60.427,51.9456 59.5,49.5C 72.6933,42.4734 82.6933,32.3067 89.5,19C 80.8397,18.5002 72.1731,18.3336 63.5,18.5C 63.5,16.8333 63.5,15.1667 63.5,13.5 Z"/></g>
<g><path style="opacity:1" fill="#e25628" d="M 19.5,28.5 C 19.44,27.9569 19.1067,27.6236 18.5,27.5C 17.5023,35.4723 17.169,43.4723 17.5,51.5C 15.3926,52.4682 13.0593,52.8016 10.5,52.5C 10.5,39.5 10.5,26.5 10.5,13.5C 13.4475,13.2229 16.2809,13.5562 19,14.5C 26.8333,26.8333 34.6667,39.1667 42.5,51.5C 39.8938,52.6517 37.2272,52.8184 34.5,52C 28.8546,44.5337 23.8546,36.7004 19.5,28.5 Z"/></g>
<g><path style="opacity:1" fill="#efb540" d="M 34.5,13.5 C 37.1667,13.5 39.8333,13.5 42.5,13.5C 42.6665,23.1724 42.4998,32.8391 42,42.5C 38.5019,39.9987 36.1686,36.6654 35,32.5C 34.5005,26.1754 34.3338,19.8421 34.5,13.5 Z"/></g>
<g><path style="opacity:1" fill="#f1d08d" d="M 157.5,14.5 C 144.677,15.4955 131.677,15.8288 118.5,15.5C 118.5,16.8333 118.5,18.1667 118.5,19.5C 117.549,18.0813 117.216,16.4147 117.5,14.5C 130.833,14.5 144.167,14.5 157.5,14.5 Z"/></g>
<g><path style="opacity:1" fill="#f0b847" d="M 157.5,14.5 C 159.384,14.7118 160.717,15.7118 161.5,17.5C 156.355,26.6217 149.688,34.455 141.5,41C 144.87,44.035 147.87,47.3683 150.5,51C 149.333,52.1667 148.167,53.3333 147,54.5C 140.322,46.6562 133.156,39.3228 125.5,32.5C 126.167,31.1667 127.167,30.1667 128.5,29.5C 131.833,32.1667 135.167,34.8333 138.5,37.5C 144.727,32.4416 150.06,26.6083 154.5,20C 142.505,19.5001 130.505,19.3335 118.5,19.5C 118.5,18.1667 118.5,16.8333 118.5,15.5C 131.677,15.8288 144.677,15.4955 157.5,14.5 Z"/></g>
<g><path style="opacity:1" fill="#e68160" d="M 19.5,28.5 C 18.8333,36.1667 18.1667,43.8333 17.5,51.5C 17.169,43.4723 17.5023,35.4723 18.5,27.5C 19.1067,27.6236 19.44,27.9569 19.5,28.5 Z"/></g>
</svg>
